<svg xmlns="http://www.w3.org/2000/svg" viewBox="0 0 51.48 51.48">
    <defs>
        <style>.cls-1,.cls-2{fill:none;}.cls-2{stroke:#fff;stroke-linecap:round;stroke-miterlimit:10;stroke-width:2px;}.cls-3{fill:#fff;}</style>
    </defs>
    <g id="Camada_2" data-name="Camada 2">
        <g id="Camada_1-2" data-name="Camada 1">
            <rect class="cls-1" width="51.48" height="51.48"/>
            <line class="cls-2" stroke="currentColor" x1="37.57" y1="18.13" x2="41.54" y2="15.69"/>
            <line class="cls-2" stroke="currentColor" x1="39.4" y1="24.94" x2="45.09" y2="24.79"/>
            <line class="cls-2" stroke="currentColor" x1="32.34" y1="13.61" x2="35.03" y2="8.58"/>
            <path class="cls-3" fill="#222" d="M15.63,33.32l4.62-2.23a42.79,42.79,0,0,0,3.2,4.31L18.3,38.31C15.91,36.84,14.1,35.45,15.63,33.32Z"/>
            <path class="cls-3" fill="currentColor" d="M24.52,15.49a2.51,2.51,0,1,1,4.27-2.64l9.8,15.75a2.51,2.51,0,0,1-4.27,2.64Zm-.81,1.88A34.49,34.49,0,0,1,15.12,26l5.59,9a17.54,17.54,0,0,1,1.67-.87,30.65,30.65,0,0,1,9.86-3ZM19.23,35.76,13.75,27A33.43,33.43,0,0,1,10.9,28.8a3.43,3.43,0,0,0-1.06,4.62l1.72,2.85a3.43,3.43,0,0,0,4.68,1.11A4.58,4.58,0,0,1,17,37,20,20,0,0,0,19.23,35.76Zm2.95.3c.41-.2.86-.45,1.27-.66l1.88,2.24a1.69,1.69,0,0,1-.1,2.39,1.72,1.72,0,0,1-.2.2l-.82.51a1.82,1.82,0,0,1-1.88-.05L18.27,38.3c.86-.51,1.63-1,2.49-1.42Z"/>
            <path class="cls-3" fill="currentColor" d="M18.22,36.37l-5.64-8.64a45.23,45.23,0,0,1,4.72-3.1l5.64,8.64A22.27,22.27,0,0,1,18.22,36.37Z"/>
        </g>
    </g>
</svg>