<svg xmlns="http://www.w3.org/2000/svg" viewBox="0 0 99 68.88"><defs><style>.cls-1{fill:none;}.cls-2{fill:#fff;}</style></defs><g id="Camada_2" data-name="Camada 2"><g id="Camada_1-2" data-name="Camada 1"><rect class="cls-1" width="99" height="68.88"/><rect class="cls-2" x="82.71" y="4.86" width="11.34" height="54" rx="5.1"/><rect class="cls-2" x="4.95" y="4.86" width="11.34" height="54" rx="5.1"/><path class="cls-2" d="M52.31,51.8c.39,3.12-1,4.15-2.3,4.15s-2.57-1-2.37-4.15c.09-1.43,1-2.56-.07-4.54C46.83,45.92,52,49,52.31,51.8Z"/><ellipse class="cls-2" cx="43.49" cy="63.78" rx="18.73" ry="2.94"/><ellipse class="cls-2" cx="49.43" cy="59.82" rx="17.41" ry="2.85"/><path class="cls-2" d="M53.34,50.83H82.8V12.67H52S56.22,21,56.34,23.61c.22,4.86-9.55,11.16-9.17,13C47.59,38.65,52.69,50.83,53.34,50.83Z"/><path class="cls-2" d="M46.14,50.88h-30V12.72H46.59L50,20c1,2.91,2.08,4.19-.12,6.29l-7.35,7.9a6,6,0,0,0-.1,5.38l4.55,10A.91.91,0,0,1,46.14,50.88Z"/></g></g></svg>